<svg xmlns="http://www.w3.org/2000/svg" xmlns:xlink="http://www.w3.org/1999/xlink" x="0" y="0" width="661.6000366210938" height="234.60000610351562" style="
        width:661.6000366210938px;
        height:234.60000610351562px;
        background: transparent;
        fill: none;
">
        
        
        <svg xmlns="http://www.w3.org/2000/svg" class="role-diagram-draw-area"><g class="shapes-region" style="stroke: black; fill: none;"><g class="composite-shape"><path class="real" d=" M229.85,6.24 L324.52,6.24 L324.52,56.86 L229.85,56.86 Z" style="stroke-width: 1; stroke: rgb(74, 144, 226); fill: rgb(74, 144, 226); fill-opacity: 1; stroke-opacity: 1;"/></g><g class="arrow-line"><path class="connection real" stroke-dasharray="" d="  M324.52,31.67 L374.97,31.67" style="stroke: rgb(74, 144, 226); stroke-width: 1; fill: rgb(74, 144, 226); fill-opacity: 1; stroke-opacity: 1;"/><g stroke="rgb(74,144,226)" transform="matrix(-1,1.2246467991473532e-16,-1.2246467991473532e-16,-1,376.9741364587568,31.67359460555143)" style="stroke: rgb(74, 144, 226); stroke-width: 1;" stroke-opacity="1"><path d=" M10.93,-3.29 Q4.96,-0.45 0,0 Q4.96,0.45 10.93,3.29"/></g></g><g class="arrow-line"><path class="connection real" stroke-dasharray="" d="  M165.86,30.46 L224.18,30.46" style="stroke: rgb(74, 144, 226); stroke-width: 1; fill: rgb(74, 144, 226); fill-opacity: 1; stroke-opacity: 1;"/><g stroke="rgb(74,144,226)" transform="matrix(-1,1.2246467991473532e-16,-1.2246467991473532e-16,-1,226.17694703583777,30.462471169163567)" style="stroke: rgb(74, 144, 226); stroke-width: 1;" stroke-opacity="1"><path d=" M10.93,-3.29 Q4.96,-0.45 0,0 Q4.96,0.45 10.93,3.29"/></g></g><g class="composite-shape"><path class="real" d=" M225.2,84.6 L349.2,84.6 L349.2,134.6 L225.2,134.6 Z" style="stroke-width: 1; stroke: rgb(74, 144, 226); fill: rgb(74, 144, 226); fill-opacity: 1; stroke-opacity: 1;"/></g><g class="arrow-line"><path class="connection real" stroke-dasharray="" d="  M352.52,112.53 L402.97,112.53" style="stroke: rgb(74, 144, 226); stroke-width: 1; fill: rgb(74, 144, 226); fill-opacity: 1; stroke-opacity: 1;"/><g stroke="rgb(74,144,226)" transform="matrix(-1,1.2246467991473532e-16,-1.2246467991473532e-16,-1,404.9741364587568,112.53054291738026)" style="stroke: rgb(74, 144, 226); stroke-width: 1;" stroke-opacity="1"><path d=" M10.93,-3.29 Q4.96,-0.45 0,0 Q4.96,0.45 10.93,3.29"/></g></g><g class="arrow-line"><path class="connection real" stroke-dasharray="" d="  M160.86,110.32 L219.18,110.32" style="stroke: rgb(74, 144, 226); stroke-width: 1; fill: rgb(74, 144, 226); fill-opacity: 1; stroke-opacity: 1;"/><g stroke="rgb(74,144,226)" transform="matrix(-1,1.2246467991473532e-16,-1.2246467991473532e-16,-1,221.17694703583777,110.3194194809924)" style="stroke: rgb(74, 144, 226); stroke-width: 1;" stroke-opacity="1"><path d=" M10.93,-3.29 Q4.96,-0.45 0,0 Q4.96,0.45 10.93,3.29"/></g></g><g/></g><g/><g/><g/></svg>
        <svg xmlns="http://www.w3.org/2000/svg" xmlns:xlink="http://www.w3.org/1999/xlink" width="660" height="233" style="width:660px;height:233px;font-family:Asana-Math, Asana;background:transparent;"><g><g><g><g transform="matrix(1,0,0,1,238.85000610351562,28.037490844726562)"><path transform="matrix(0.017,0,0,-0.017,0,0)" d="M390 646L463 646C541 646 577 641 580 629C583 621 585 602 584 592L580 528L608 528L635 692L544 691C456 690 388 689 353 689C316 689 252 690 166 691L71 692L53 528L82 528L97 588C102 610 109 626 115 633C121 640 159 646 196 646L308 646L222 125C206 34 204 31 164 28L113 25L109 -3L166 -2C206 -1 235 0 251 0C270 0 301 -1 340 -2L384 -3L387 25L328 28C302 29 292 37 292 58C292 67 293 74 296 93ZM978 365C981 403 986 435 994 476C983 481 979 482 974 482C943 482 912 458 876 407C837 351 798 291 782 256L814 408C818 425 820 438 820 450C820 470 812 482 797 482C776 482 738 461 664 408L636 388L643 368L675 389C703 407 714 412 723 412C733 412 740 403 740 390C740 332 697 126 657 -2L667 -9C682 -4 698 -1 721 4L734 6L760 126C778 209 801 262 845 319C879 363 906 384 928 384C943 384 953 379 964 365ZM1269 204L1240 77C1236 60 1234 42 1234 26C1234 4 1243 -9 1258 -9C1281 -9 1322 17 1404 85L1397 106C1373 86 1344 59 1322 59C1313 59 1307 68 1307 82C1307 87 1307 90 1308 93L1400 472L1390 481L1357 463C1316 478 1299 482 1272 482C1244 482 1224 477 1197 464C1135 433 1102 403 1077 354C1033 265 1002 145 1002 67C1002 23 1017 -11 1036 -11C1073 -11 1153 41 1269 204ZM1317 414C1295 305 1276 253 1242 201C1185 117 1124 59 1092 59C1080 59 1074 72 1074 99C1074 163 1102 280 1137 360C1161 415 1184 433 1232 433C1255 433 1273 429 1317 414ZM1924 722L1912 733C1860 707 1824 698 1752 691L1748 670L1796 670C1820 670 1830 663 1830 646C1830 638 1829 629 1828 622L1800 468C1770 477 1743 482 1718 482C1649 482 1555 410 1509 323C1478 265 1458 170 1458 86C1458 21 1473 -11 1502 -11C1529 -11 1566 6 1600 33C1654 77 1687 116 1754 217L1731 126C1720 82 1715 50 1715 24C1715 3 1724 -9 1741 -9C1758 -9 1782 3 1816 28L1897 88L1887 107L1843 76C1829 66 1813 59 1804 59C1796 59 1790 68 1790 82C1790 90 1791 99 1798 128ZM1555 59C1539 59 1530 73 1530 98C1530 224 1576 380 1625 418C1638 428 1657 433 1684 433C1728 433 1757 427 1790 410L1778 351C1741 171 1600 59 1555 59ZM1974 388L1981 368L2013 389C2050 412 2053 414 2060 414C2070 414 2078 404 2078 391C2078 384 2074 361 2070 347L2004 107C1996 76 1991 49 1991 30C1991 6 2002 -9 2021 -9C2047 -9 2083 12 2181 85L2171 103L2145 86C2116 67 2093 56 2084 56C2077 56 2071 66 2071 76C2071 86 2073 95 2078 116L2155 420C2159 437 2161 448 2161 456C2161 473 2152 482 2136 482C2114 482 2077 461 2002 408ZM2168 712C2139 712 2110 679 2110 645C2110 620 2125 604 2149 604C2180 604 2204 633 2204 671C2204 695 2189 712 2168 712ZM2342 390L2286 107C2285 99 2273 61 2273 31C2273 6 2284 -9 2303 -9C2338 -9 2373 11 2451 74L2482 99L2472 117L2427 86C2398 66 2378 56 2367 56C2358 56 2353 64 2353 76C2353 102 2367 183 2396 328L2409 390L2516 390L2527 440C2489 436 2455 434 2417 434C2433 528 2444 577 2462 631L2451 646C2431 634 2404 622 2373 610L2348 440C2304 419 2278 408 2260 403L2258 390ZM2583 388L2590 368L2622 389C2659 412 2662 414 2669 414C2679 414 2687 404 2687 391C2687 384 2683 361 2679 347L2613 107C2605 76 2600 49 2600 30C2600 6 2611 -9 2630 -9C2656 -9 2692 12 2790 85L2780 103L2754 86C2725 67 2702 56 2693 56C2686 56 2680 66 2680 76C2680 86 2682 95 2687 116L2764 420C2768 437 2770 448 2770 456C2770 473 2761 482 2745 482C2723 482 2686 461 2611 408ZM2777 712C2748 712 2719 679 2719 645C2719 620 2734 604 2758 604C2789 604 2813 633 2813 671C2813 695 2798 712 2777 712ZM2843 152C2843 46 2888 -11 2971 -11C3026 -11 3086 15 3131 57C3193 116 3237 230 3237 331C3237 425 3187 482 3104 482C3000 482 2843 382 2843 152ZM3067 444C3128 444 3161 399 3161 315C3161 219 3130 113 3086 60C3068 39 3042 27 3011 27C2953 27 2919 72 2919 151C2919 264 2958 387 3007 427C3020 438 3043 444 3067 444ZM3293 388L3300 368L3332 389C3369 412 3372 414 3379 414C3390 414 3397 404 3397 389C3397 338 3356 145 3315 2L3322 -9C3347 -2 3370 4 3392 8C3411 134 3432 199 3478 268C3532 352 3607 414 3652 414C3663 414 3669 405 3669 390C3669 372 3666 351 3658 319L3606 107C3597 70 3593 47 3593 31C3593 6 3604 -9 3623 -9C3649 -9 3685 12 3783 85L3773 103L3747 86C3718 67 3696 56 3686 56C3679 56 3673 65 3673 76C3673 81 3674 92 3675 96L3741 372C3748 401 3752 429 3752 446C3752 469 3741 482 3721 482C3679 482 3610 444 3551 389C3513 354 3485 320 3433 247L3471 408C3475 426 3477 438 3477 449C3477 470 3469 482 3454 482C3433 482 3394 460 3321 408ZM4095 204L4066 77C4062 60 4060 42 4060 26C4060 4 4069 -9 4084 -9C4107 -9 4148 17 4230 85L4223 106C4199 86 4170 59 4148 59C4139 59 4133 68 4133 82C4133 87 4133 90 4134 93L4226 472L4216 481L4183 463C4142 478 4125 482 4098 482C4070 482 4050 477 4023 464C3961 433 3928 403 3903 354C3859 265 3828 145 3828 67C3828 23 3843 -11 3862 -11C3899 -11 3979 41 4095 204ZM4143 414C4121 305 4102 253 4068 201C4011 117 3950 59 3918 59C3906 59 3900 72 3900 99C3900 163 3928 280 3963 360C3987 415 4010 433 4058 433C4081 433 4099 429 4143 414ZM4518 722L4506 733C4454 707 4418 698 4346 691L4342 670L4390 670C4414 670 4424 663 4424 648C4424 645 4424 640 4421 622C4410 567 4337 182 4322 132C4309 82 4303 52 4303 31C4303 6 4314 -9 4333 -9C4359 -9 4395 12 4493 85L4483 103L4457 86C4428 67 4406 56 4396 56C4389 56 4383 66 4383 76C4383 82 4384 89 4387 104Z" stroke="rgb(0,0,0)" stroke-opacity="1" stroke-width="8" fill="rgb(0,0,0)" fill-opacity="1"></path></g></g></g><g><g><g transform="matrix(1,0,0,1,238.85000610351562,48.4375)"><path transform="matrix(0.017,0,0,-0.017,0,0)" d="M357 471C357 386 395 339 479 319L574 296C628 283 655 248 655 191C655 96 584 30 481 30C427 30 389 42 345 73L345 172L315 172C309 117 302 72 291 20C340 -5 393 -18 446 -18C601 -18 734 99 734 234C734 313 691 355 590 377L525 391C459 405 429 442 429 508C429 595 496 658 588 658C637 658 670 645 700 613L700 537L730 537C734 591 741 629 755 672C710 696 670 706 623 706C499 706 357 614 357 471ZM838 388L845 368L877 389C914 412 917 414 924 414C934 414 942 404 942 391C942 384 938 361 934 347L868 107C860 76 855 49 855 30C855 6 866 -9 885 -9C911 -9 947 12 1045 85L1035 103L1009 86C980 67 957 56 948 56C941 56 935 66 935 76C935 86 937 95 942 116L1019 420C1023 437 1025 448 1025 456C1025 473 1016 482 1000 482C978 482 941 461 866 408ZM1032 712C1003 712 974 679 974 645C974 620 989 604 1013 604C1044 604 1068 633 1068 671C1068 695 1053 712 1032 712ZM1811 103L1785 86C1756 67 1734 56 1724 56C1717 56 1711 65 1711 76C1711 86 1713 95 1718 116L1793 413C1797 430 1800 446 1800 454C1800 471 1790 482 1774 482C1745 482 1707 464 1646 421C1583 376 1548 341 1499 272L1529 409C1533 429 1536 444 1536 451C1536 470 1526 482 1510 482C1480 482 1434 460 1379 418C1335 384 1315 363 1250 275L1283 408C1287 424 1289 439 1289 451C1289 470 1280 482 1266 482C1245 482 1207 461 1133 408L1105 388L1112 368C1149 391 1184 414 1191 414C1202 414 1209 404 1209 389C1209 338 1168 145 1127 2L1130 -9L1198 6L1220 108C1244 219 1271 278 1326 338C1368 384 1413 414 1441 414C1448 414 1452 406 1452 393C1452 358 1430 244 1389 69L1373 2L1378 -9L1447 6L1468 113C1484 194 1518 269 1562 318C1617 379 1667 414 1699 414C1707 414 1712 405 1712 389C1712 365 1709 351 1687 264C1647 105 1631 84 1631 31C1631 6 1642 -9 1661 -9C1687 -9 1723 12 1821 85ZM2350 473L2343 482L2275 465L2265 414C2250 336 2225 268 2194 221C2135 130 2057 59 2017 59C2009 59 2004 68 2004 85C2004 99 2006 112 2011 137L2068 408C2071 424 2073 438 2073 451C2073 470 2064 482 2050 482C2030 482 1992 461 1918 408L1890 388L1897 368L1929 389C1957 407 1968 412 1977 412C1986 412 1994 403 1994 392C1994 388 1993 378 1992 374L1929 77C1927 68 1925 44 1925 30C1925 7 1940 -11 1960 -11C2023 -11 2144 101 2228 239L2191 97C2184 73 2180 46 2180 31C2180 6 2191 -9 2210 -9C2236 -9 2272 12 2370 85L2360 103L2334 86C2310 70 2284 59 2273 59C2265 59 2260 66 2260 76C2260 112 2335 416 2350 473ZM2664 722L2652 733C2600 707 2564 698 2492 691L2488 670L2536 670C2560 670 2570 663 2570 648C2570 645 2570 640 2567 622C2556 567 2483 182 2468 132C2455 82 2449 52 2449 31C2449 6 2460 -9 2479 -9C2505 -9 2541 12 2639 85L2629 103L2603 86C2574 67 2552 56 2542 56C2535 56 2529 66 2529 76C2529 82 2530 89 2533 104ZM2961 204L2932 77C2928 60 2926 42 2926 26C2926 4 2935 -9 2950 -9C2973 -9 3014 17 3096 85L3089 106C3065 86 3036 59 3014 59C3005 59 2999 68 2999 82C2999 87 2999 90 3000 93L3092 472L3082 481L3049 463C3008 478 2991 482 2964 482C2936 482 2916 477 2889 464C2827 433 2794 403 2769 354C2725 265 2694 145 2694 67C2694 23 2709 -11 2728 -11C2765 -11 2845 41 2961 204ZM3009 414C2987 305 2968 253 2934 201C2877 117 2816 59 2784 59C2772 59 2766 72 2766 99C2766 163 2794 280 2829 360C2853 415 2876 433 2924 433C2947 433 2965 429 3009 414ZM3258 390L3202 107C3201 99 3189 61 3189 31C3189 6 3200 -9 3219 -9C3254 -9 3289 11 3367 74L3398 99L3388 117L3343 86C3314 66 3294 56 3283 56C3274 56 3269 64 3269 76C3269 102 3283 183 3312 328L3325 390L3432 390L3443 440C3405 436 3371 434 3333 434C3349 528 3360 577 3378 631L3367 646C3347 634 3320 622 3289 610L3264 440C3220 419 3194 408 3176 403L3174 390ZM3482 152C3482 46 3527 -11 3610 -11C3665 -11 3725 15 3770 57C3832 116 3876 230 3876 331C3876 425 3826 482 3743 482C3639 482 3482 382 3482 152ZM3706 444C3767 444 3800 399 3800 315C3800 219 3769 113 3725 60C3707 39 3681 27 3650 27C3592 27 3558 72 3558 151C3558 264 3597 387 3646 427C3659 438 3682 444 3706 444ZM4276 365C4279 403 4284 435 4292 476C4281 481 4277 482 4272 482C4241 482 4210 458 4174 407C4135 351 4096 291 4080 256L4112 408C4116 425 4118 438 4118 450C4118 470 4110 482 4095 482C4074 482 4036 461 3962 408L3934 388L3941 368L3973 389C4001 407 4012 412 4021 412C4031 412 4038 403 4038 390C4038 332 3995 126 3955 -2L3965 -9C3980 -4 3996 -1 4019 4L4032 6L4058 126C4076 209 4099 262 4143 319C4177 363 4204 384 4226 384C4241 384 4251 379 4262 365Z" stroke="rgb(0,0,0)" stroke-opacity="1" stroke-width="8" fill="rgb(0,0,0)" fill-opacity="1"></path></g></g></g></g><g><g><g><text x="109.61248779296875" y="23.33123779296875" style="white-space:pre;stroke:none;fill:rgb(74,144,226);fill-opacity:1;font-size:15px;font-family:Arial, Helvetica, sans-serif;font-weight:400;font-style:normal;dominant-baseline:text-before-edge;text-decoration:none solid rgb(74, 144, 226);">Design</text></g></g></g><g><g><g><text x="394.9812316894531" y="19.699996948242188" style="white-space:pre;stroke:none;fill:rgb(74,144,226);fill-opacity:1;font-size:15px;font-family:Arial, Helvetica, sans-serif;font-weight:400;font-style:normal;dominant-baseline:text-before-edge;text-decoration:none solid rgb(74, 144, 226);">Performance</text></g></g></g><g><g><g><g transform="matrix(1,0,0,1,235.85000610351562,106.89375305175781)"><path transform="matrix(0.017,0,0,-0.017,0,0)" d="M316 -3C388 -3 437 8 489 34C645 114 741 265 741 431C741 529 711 599 650 642C604 675 519 693 424 692L220 689L210 689C201 689 198 689 97 692L94 664L147 662C171 661 182 653 182 635C182 621 178 589 173 559L86 55C81 31 56 29 33 23L28 -3L121 0L176 0C211 0 282 -3 316 -3ZM384 655C566 655 649 579 649 415C649 225 549 41 329 41C285 41 236 46 168 56C168 68 169 75 172 93L268 650C291 650 349 655 384 655ZM811 388L818 368L850 389C887 412 890 414 897 414C907 414 915 404 915 391C915 384 911 361 907 347L841 107C833 76 828 49 828 30C828 6 839 -9 858 -9C884 -9 920 12 1018 85L1008 103L982 86C953 67 930 56 921 56C914 56 908 66 908 76C908 86 910 95 915 116L992 420C996 437 998 448 998 456C998 473 989 482 973 482C951 482 914 461 839 408ZM1005 712C976 712 947 679 947 645C947 620 962 604 986 604C1017 604 1041 633 1041 671C1041 695 1026 712 1005 712ZM1399 437L1383 437L1404 549C1420 635 1448 673 1494 673C1524 673 1551 658 1566 634L1576 638C1581 654 1591 685 1599 705L1604 720C1588 727 1557 733 1534 733C1523 733 1507 730 1499 726C1475 715 1393 654 1370 630C1348 608 1336 578 1325 521L1310 442C1269 422 1249 414 1224 405L1219 383L1300 383L1291 327C1261 132 1224 -54 1202 -123C1184 -182 1154 -213 1118 -213C1095 -213 1084 -206 1066 -184L1052 -188C1048 -211 1034 -259 1029 -268C1038 -273 1053 -276 1064 -276C1105 -276 1159 -245 1198 -198C1269 -114 1289 -18 1373 383L1477 383C1481 402 1488 425 1494 439L1490 446C1461 439 1462 437 1399 437ZM1949 437L1933 437L1954 549C1970 635 1998 673 2044 673C2074 673 2101 658 2116 634L2126 638C2131 654 2141 685 2149 705L2154 720C2138 727 2107 733 2084 733C2073 733 2057 730 2049 726C2025 715 1943 654 1920 630C1898 608 1886 578 1875 521L1860 442C1819 422 1799 414 1774 405L1769 383L1850 383L1841 327C1811 132 1774 -54 1752 -123C1734 -182 1704 -213 1668 -213C1645 -213 1634 -206 1616 -184L1602 -188C1598 -211 1584 -259 1579 -268C1588 -273 1603 -276 1614 -276C1655 -276 1709 -245 1748 -198C1819 -114 1839 -18 1923 383L2027 383C2031 402 2038 425 2044 439L2040 446C2011 439 2012 437 1949 437ZM2482 111L2458 94C2405 56 2357 36 2321 36C2274 36 2245 73 2245 133C2245 158 2248 185 2253 214C2270 218 2379 248 2404 259C2489 296 2528 342 2528 404C2528 451 2494 482 2444 482C2376 496 2266 423 2229 349C2199 299 2169 180 2169 113C2169 35 2213 -11 2285 -11C2342 -11 2398 17 2490 92ZM2267 274C2284 343 2304 386 2333 412C2351 428 2382 440 2406 440C2435 440 2454 420 2454 388C2454 344 2419 297 2367 272C2339 258 2303 247 2258 237ZM2910 365C2913 403 2918 435 2926 476C2915 481 2911 482 2906 482C2875 482 2844 458 2808 407C2769 351 2730 291 2714 256L2746 408C2750 425 2752 438 2752 450C2752 470 2744 482 2729 482C2708 482 2670 461 2596 408L2568 388L2575 368L2607 389C2635 407 2646 412 2655 412C2665 412 2672 403 2672 390C2672 332 2629 126 2589 -2L2599 -9C2614 -4 2630 -1 2653 4L2666 6L2692 126C2710 209 2733 262 2777 319C2811 363 2838 384 2860 384C2875 384 2885 379 2896 365ZM3258 111L3234 94C3181 56 3133 36 3097 36C3050 36 3021 73 3021 133C3021 158 3024 185 3029 214C3046 218 3155 248 3180 259C3265 296 3304 342 3304 404C3304 451 3270 482 3220 482C3152 496 3042 423 3005 349C2975 299 2945 180 2945 113C2945 35 2989 -11 3061 -11C3118 -11 3174 17 3266 92ZM3043 274C3060 343 3080 386 3109 412C3127 428 3158 440 3182 440C3211 440 3230 420 3230 388C3230 344 3195 297 3143 272C3115 258 3079 247 3034 237ZM3342 388L3349 368L3381 389C3418 412 3421 414 3428 414C3439 414 3446 404 3446 389C3446 338 3405 145 3364 2L3371 -9C3396 -2 3419 4 3441 8C3460 134 3481 199 3527 268C3581 352 3656 414 3701 414C3712 414 3718 405 3718 390C3718 372 3715 351 3707 319L3655 107C3646 70 3642 47 3642 31C3642 6 3653 -9 3672 -9C3698 -9 3734 12 3832 85L3822 103L3796 86C3767 67 3745 56 3735 56C3728 56 3722 65 3722 76C3722 81 3723 92 3724 96L3790 372C3797 401 3801 429 3801 446C3801 469 3790 482 3770 482C3728 482 3659 444 3600 389C3562 354 3534 320 3482 247L3520 408C3524 426 3526 438 3526 449C3526 470 3518 482 3503 482C3482 482 3443 460 3370 408ZM3998 390L3942 107C3941 99 3929 61 3929 31C3929 6 3940 -9 3959 -9C3994 -9 4029 11 4107 74L4138 99L4128 117L4083 86C4054 66 4034 56 4023 56C4014 56 4009 64 4009 76C4009 102 4023 183 4052 328L4065 390L4172 390L4183 440C4145 436 4111 434 4073 434C4089 528 4100 577 4118 631L4107 646C4087 634 4060 622 4029 610L4004 440C3960 419 3934 408 3916 403L3914 390ZM4239 388L4246 368L4278 389C4315 412 4318 414 4325 414C4335 414 4343 404 4343 391C4343 384 4339 361 4335 347L4269 107C4261 76 4256 49 4256 30C4256 6 4267 -9 4286 -9C4312 -9 4348 12 4446 85L4436 103L4410 86C4381 67 4358 56 4349 56C4342 56 4336 66 4336 76C4336 86 4338 95 4343 116L4420 420C4424 437 4426 448 4426 456C4426 473 4417 482 4401 482C4379 482 4342 461 4267 408ZM4433 712C4404 712 4375 679 4375 645C4375 620 4390 604 4414 604C4445 604 4469 633 4469 671C4469 695 4454 712 4433 712ZM4753 204L4724 77C4720 60 4718 42 4718 26C4718 4 4727 -9 4742 -9C4765 -9 4806 17 4888 85L4881 106C4857 86 4828 59 4806 59C4797 59 4791 68 4791 82C4791 87 4791 90 4792 93L4884 472L4874 481L4841 463C4800 478 4783 482 4756 482C4728 482 4708 477 4681 464C4619 433 4586 403 4561 354C4517 265 4486 145 4486 67C4486 23 4501 -11 4520 -11C4557 -11 4637 41 4753 204ZM4801 414C4779 305 4760 253 4726 201C4669 117 4608 59 4576 59C4564 59 4558 72 4558 99C4558 163 4586 280 4621 360C4645 415 4668 433 4716 433C4739 433 4757 429 4801 414ZM5160 722L5148 733C5096 707 5060 698 4988 691L4984 670L5032 670C5056 670 5066 663 5066 646C5066 639 5065 628 5064 622L4963 71C4962 68 4962 64 4962 61C4962 22 5010 -11 5065 -11C5102 -11 5153 8 5196 39C5292 107 5358 244 5358 376C5358 414 5349 453 5337 468C5330 477 5317 482 5302 482C5278 482 5248 474 5220 460C5169 433 5136 403 5074 324ZM5247 424C5273 424 5286 401 5286 352C5286 288 5265 202 5235 137C5202 68 5162 36 5108 36C5062 36 5037 59 5037 101C5037 135 5052 276 5133 361C5166 395 5218 424 5247 424ZM5638 722L5626 733C5574 707 5538 698 5466 691L5462 670L5510 670C5534 670 5544 663 5544 648C5544 645 5544 640 5541 622C5530 567 5457 182 5442 132C5429 82 5423 52 5423 31C5423 6 5434 -9 5453 -9C5479 -9 5515 12 5613 85L5603 103L5577 86C5548 67 5526 56 5516 56C5509 56 5503 66 5503 76C5503 82 5504 89 5507 104ZM5992 111L5968 94C5915 56 5867 36 5831 36C5784 36 5755 73 5755 133C5755 158 5758 185 5763 214C5780 218 5889 248 5914 259C5999 296 6038 342 6038 404C6038 451 6004 482 5954 482C5886 496 5776 423 5739 349C5709 299 5679 180 5679 113C5679 35 5723 -11 5795 -11C5852 -11 5908 17 6000 92ZM5777 274C5794 343 5814 386 5843 412C5861 428 5892 440 5916 440C5945 440 5964 420 5964 388C5964 344 5929 297 5877 272C5849 258 5813 247 5768 237Z" stroke="rgb(0,0,0)" stroke-opacity="1" stroke-width="8" fill="rgb(0,0,0)" fill-opacity="1"></path></g></g></g><g><g><g transform="matrix(1,0,0,1,235.85000610351562,127.29374694824219)"><path transform="matrix(0.017,0,0,-0.017,0,0)" d="M108 471C108 386 146 339 230 319L325 296C379 283 406 248 406 191C406 96 335 30 232 30C178 30 140 42 96 73L96 172L66 172C60 117 53 72 42 20C91 -5 144 -18 197 -18C352 -18 485 99 485 234C485 313 442 355 341 377L276 391C210 405 180 442 180 508C180 595 247 658 339 658C388 658 421 645 451 613L451 537L481 537C485 591 492 629 506 672C461 696 421 706 374 706C250 706 108 614 108 471ZM589 388L596 368L628 389C665 412 668 414 675 414C685 414 693 404 693 391C693 384 689 361 685 347L619 107C611 76 606 49 606 30C606 6 617 -9 636 -9C662 -9 698 12 796 85L786 103L760 86C731 67 708 56 699 56C692 56 686 66 686 76C686 86 688 95 693 116L770 420C774 437 776 448 776 456C776 473 767 482 751 482C729 482 692 461 617 408ZM783 712C754 712 725 679 725 645C725 620 740 604 764 604C795 604 819 633 819 671C819 695 804 712 783 712ZM1562 103L1536 86C1507 67 1485 56 1475 56C1468 56 1462 65 1462 76C1462 86 1464 95 1469 116L1544 413C1548 430 1551 446 1551 454C1551 471 1541 482 1525 482C1496 482 1458 464 1397 421C1334 376 1299 341 1250 272L1280 409C1284 429 1287 444 1287 451C1287 470 1277 482 1261 482C1231 482 1185 460 1130 418C1086 384 1066 363 1001 275L1034 408C1038 424 1040 439 1040 451C1040 470 1031 482 1017 482C996 482 958 461 884 408L856 388L863 368C900 391 935 414 942 414C953 414 960 404 960 389C960 338 919 145 878 2L881 -9L949 6L971 108C995 219 1022 278 1077 338C1119 384 1164 414 1192 414C1199 414 1203 406 1203 393C1203 358 1181 244 1140 69L1124 2L1129 -9L1198 6L1219 113C1235 194 1269 269 1313 318C1368 379 1418 414 1450 414C1458 414 1463 405 1463 389C1463 365 1460 351 1438 264C1398 105 1382 84 1382 31C1382 6 1393 -9 1412 -9C1438 -9 1474 12 1572 85ZM2101 473L2094 482L2026 465L2016 414C2001 336 1976 268 1945 221C1886 130 1808 59 1768 59C1760 59 1755 68 1755 85C1755 99 1757 112 1762 137L1819 408C1822 424 1824 438 1824 451C1824 470 1815 482 1801 482C1781 482 1743 461 1669 408L1641 388L1648 368L1680 389C1708 407 1719 412 1728 412C1737 412 1745 403 1745 392C1745 388 1744 378 1743 374L1680 77C1678 68 1676 44 1676 30C1676 7 1691 -11 1711 -11C1774 -11 1895 101 1979 239L1942 97C1935 73 1931 46 1931 31C1931 6 1942 -9 1961 -9C1987 -9 2023 12 2121 85L2111 103L2085 86C2061 70 2035 59 2024 59C2016 59 2011 66 2011 76C2011 112 2086 416 2101 473ZM2415 722L2403 733C2351 707 2315 698 2243 691L2239 670L2287 670C2311 670 2321 663 2321 648C2321 645 2321 640 2318 622C2307 567 2234 182 2219 132C2206 82 2200 52 2200 31C2200 6 2211 -9 2230 -9C2256 -9 2292 12 2390 85L2380 103L2354 86C2325 67 2303 56 2293 56C2286 56 2280 66 2280 76C2280 82 2281 89 2284 104ZM2712 204L2683 77C2679 60 2677 42 2677 26C2677 4 2686 -9 2701 -9C2724 -9 2765 17 2847 85L2840 106C2816 86 2787 59 2765 59C2756 59 2750 68 2750 82C2750 87 2750 90 2751 93L2843 472L2833 481L2800 463C2759 478 2742 482 2715 482C2687 482 2667 477 2640 464C2578 433 2545 403 2520 354C2476 265 2445 145 2445 67C2445 23 2460 -11 2479 -11C2516 -11 2596 41 2712 204ZM2760 414C2738 305 2719 253 2685 201C2628 117 2567 59 2535 59C2523 59 2517 72 2517 99C2517 163 2545 280 2580 360C2604 415 2627 433 2675 433C2698 433 2716 429 2760 414ZM3009 390L2953 107C2952 99 2940 61 2940 31C2940 6 2951 -9 2970 -9C3005 -9 3040 11 3118 74L3149 99L3139 117L3094 86C3065 66 3045 56 3034 56C3025 56 3020 64 3020 76C3020 102 3034 183 3063 328L3076 390L3183 390L3194 440C3156 436 3122 434 3084 434C3100 528 3111 577 3129 631L3118 646C3098 634 3071 622 3040 610L3015 440C2971 419 2945 408 2927 403L2925 390ZM3233 152C3233 46 3278 -11 3361 -11C3416 -11 3476 15 3521 57C3583 116 3627 230 3627 331C3627 425 3577 482 3494 482C3390 482 3233 382 3233 152ZM3457 444C3518 444 3551 399 3551 315C3551 219 3520 113 3476 60C3458 39 3432 27 3401 27C3343 27 3309 72 3309 151C3309 264 3348 387 3397 427C3410 438 3433 444 3457 444ZM4027 365C4030 403 4035 435 4043 476C4032 481 4028 482 4023 482C3992 482 3961 458 3925 407C3886 351 3847 291 3831 256L3863 408C3867 425 3869 438 3869 450C3869 470 3861 482 3846 482C3825 482 3787 461 3713 408L3685 388L3692 368L3724 389C3752 407 3763 412 3772 412C3782 412 3789 403 3789 390C3789 332 3746 126 3706 -2L3716 -9C3731 -4 3747 -1 3770 4L3783 6L3809 126C3827 209 3850 262 3894 319C3928 363 3955 384 3977 384C3992 384 4002 379 4013 365Z" stroke="rgb(0,0,0)" stroke-opacity="1" stroke-width="8" fill="rgb(0,0,0)" fill-opacity="1"></path></g></g></g></g><g><g><g><text x="104.61248779296875" y="103.19374084472656" style="white-space:pre;stroke:none;fill:rgb(74,144,226);fill-opacity:1;font-size:15px;font-family:Arial, Helvetica, sans-serif;font-weight:400;font-style:normal;dominant-baseline:text-before-edge;text-decoration:none solid rgb(74, 144, 226);">Design</text></g></g></g><g><g><g><text x="403.5249938964844" y="92.08750915527344" style="white-space:pre;stroke:none;fill:rgb(74,144,226);fill-opacity:1;font-size:15px;font-family:Arial, Helvetica, sans-serif;font-weight:400;font-style:normal;dominant-baseline:text-before-edge;text-decoration:none solid rgb(74, 144, 226);">Performance</text></g></g><g><g><text x="403.5249938964844" y="113.08750915527344" style="white-space:pre;stroke:none;fill:rgb(126,211,33);fill-opacity:1;font-size:15px;font-family:Arial, Helvetica, sans-serif;font-weight:400;font-style:normal;dominant-baseline:text-before-edge;text-decoration:none solid rgb(126, 211, 33);">Sensitivity of performance</text></g></g></g></svg>
</svg>
